{
  "accessors": [
    {
      "bufferView": 2,
      "componentType": 5126,
      "count": 2645,
      "max": [
        1.0,
        0.603954017162323,
        0.24914099276065826
      ],
      "min": [
        -1.0,
        -0.603954017162323,
        -0.24914099276065826
      ],
      "type": "VEC3"
    },
    {
      "bufferView": 2,
      "byteOffset": 31740,
      "componentType": 5126,
      "count": 2645,
      "max": [
        0.9984711408615112,
        0.953628659248352,
        0.9998613595962524
      ],
      "min": [
        -0.9984710216522217,
        -0.9958563446998596,
        -0.999982476234436
      ],
      "type": "VEC3"
    },
    {
      "bufferView": 3,
      "componentType": 5126,
      "count": 2645,
      "max": [
        0.9999714493751526,
        0.9998427629470825,
        0.9999585151672363,
        1.0
      ],
      "min": [
        -0.999891996383667,
        -0.9999819397926331,
        -0.9982066750526428,
        -1.0
      ],
      "type": "VEC4"
    },
    {
      "bufferView": 1,
      "componentType": 5126,
      "count": 2645,
      "max": [
        0.9767630100250244,
        0.9438620209693909
      ],
      "min": [
        0.0019496099557727575,
        0.00199202005751431
      ],
      "type": "VEC2"
    },
    {
      "bufferView": 0,
      "componentType": 5125,
      "count": 14424,
      "type": "SCALAR"
    }
  ],
  "asset": {
    "extras": {
      "author": "Juan Martinez Sanjurjo (https://sketchfab.com/JuanSanjurjo)",
      "license": "CC-BY-4.0 (http://creativecommons.org/licenses/by/4.0/)",
      "source": "https://sketchfab.com/3d-models/advanced-game-characters-week-2-jacket-8f211f057bb24f5db17ca659553b716b",
      "title": "Advanced Game Characters - Week 2 Jacket"
    },
    "generator": "Sketchfab-12.67.0",
    "version": "2.0"
  },
  "bufferViews": [
    {
      "buffer": 0,
      "byteLength": 57696,
      "name": "floatBufferViews",
      "target": 34963
    },
    {
      "buffer": 0,
      "byteLength": 21160,
      "byteOffset": 57696,
      "byteStride": 8,
      "name": "floatBufferViews",
      "target": 34962
    },
    {
      "buffer": 0,
      "byteLength": 63480,
      "byteOffset": 78856,
      "byteStride": 12,
      "name": "floatBufferViews",
      "target": 34962
    },
    {
      "buffer": 0,
      "byteLength": 42320,
      "byteOffset": 142336,
      "byteStride": 16,
      "name": "floatBufferViews",
      "target": 34962
    }
  ],
  "buffers": [
    {
      "byteLength": 184656,
      "uri": "scene.bin"
    }
  ],
  "images": [
    {
      "uri": "textures/Jacket_Lv2_Jacket_baseColor.jpeg"
    },
    {
      "uri": "textures/Jacket_Lv2_Jacket_metallicRoughness.png"
    },
    {
      "uri": "textures/Jacket_Lv2_Jacket_normal.png"
    }
  ],
  "materials": [
    {
      "doubleSided": true,
      "name": "Jacket_Lv2_Jacket",
      "normalTexture": {
        "index": 2
      },
      "occlusionTexture": {
        "index": 1
      },
      "pbrMetallicRoughness": {
        "baseColorTexture": {
          "index": 0
        },
        "metallicRoughnessTexture": {
          "index": 1
        }
      }
    }
  ],
  "meshes": [
    {
      "name": "defaultMaterial",
      "primitives": [
        {
          "attributes": {
            "NORMAL": 1,
            "POSITION": 0,
            "TANGENT": 2,
            "TEXCOORD_0": 3
          },
          "indices": 4,
          "material": 0,
          "mode": 4
        }
      ]
    }
  ],
  "nodes": [
    {
      "children": [
        1
      ],
      "matrix": [
        1.0,
        0.0,
        0.0,
        0.0,
        0.0,
        2.220446049250313e-16,
        -1.0,
        0.0,
        0.0,
        1.0,
        2.220446049250313e-16,
        0.0,
        0.0,
        0.0,
        0.0,
        1.0
      ],
      "name": "Sketchfab_model"
    },
    {
      "children": [
        2
      ],
      "matrix": [
        1.0,
        0.0,
        0.0,
        0.0,
        0.0,
        -4.371139006309477e-08,
        0.999999999999999,
        0.0,
        0.0,
        -0.999999999999999,
        -4.371139006309477e-08,
        0.0,
        0.0,
        0.0,
        0.0,
        1.0
      ],
      "name": "Collada visual scene group"
    },
    {
      "children": [
        3
      ],
      "name": "Jacket_Lv2:jacket_low"
    },
    {
      "mesh": 0,
      "name": "defaultMaterial"
    }
  ],
  "samplers": [
    {
      "magFilter": 9729,
      "minFilter": 9987,
      "wrapS": 10497,
      "wrapT": 10497
    }
  ],
  "scene": 0,
  "scenes": [
    {
      "name": "Sketchfab_Scene",
      "nodes": [
        0
      ]
    }
  ],
  "textures": [
    {
      "sampler": 0,
      "source": 0
    },
    {
      "sampler": 0,
      "source": 1
    },
    {
      "sampler": 0,
      "source": 2
    }
  ]
}
